<?xml version="1.0" encoding="UTF-8" standalone="no"?>
<svg
   xmlns:dc="http://purl.org/dc/elements/1.1/"
   xmlns:cc="http://creativecommons.org/ns#"
   xmlns:rdf="http://www.w3.org/1999/02/22-rdf-syntax-ns#"
   xmlns:svg="http://www.w3.org/2000/svg"
   xmlns="http://www.w3.org/2000/svg"
   xmlns:sodipodi="http://sodipodi.sourceforge.net/DTD/sodipodi-0.dtd"
   xmlns:inkscape="http://www.inkscape.org/namespaces/inkscape"
   width="120mm"
   height="179mm"
   viewBox="0 0 120 179"
   version="1.1"
   id="svg918"
   inkscape:version="1.0.2 (394de47547, 2021-03-26)"
   sodipodi:docname="angrybee_drag_drop.svg">
  <defs
     id="defs912" />
  <sodipodi:namedview
     id="base"
     pagecolor="#36383f"
     bordercolor="#666666"
     borderopacity="1.0"
     inkscape:pageopacity="0"
     inkscape:pageshadow="2"
     inkscape:zoom="0.98994949"
     inkscape:cx="329.64008"
     inkscape:cy="384.36565"
     inkscape:document-units="mm"
     inkscape:current-layer="layer1"
     inkscape:document-rotation="0"
     showgrid="false"
     inkscape:window-width="1600"
     inkscape:window-height="863"
     inkscape:window-x="1366"
     inkscape:window-y="0"
     inkscape:window-maximized="1" />
  <metadata
     id="metadata915">
    <rdf:RDF>
      <cc:Work
         rdf:about="">
        <dc:format>image/svg+xml</dc:format>
        <dc:type
           rdf:resource="http://purl.org/dc/dcmitype/StillImage" />
        <dc:title />
      </cc:Work>
    </rdf:RDF>
  </metadata>
  <g
     inkscape:label="Layer 1"
     inkscape:groupmode="layer"
     id="layer1">
    <path
       sodipodi:nodetypes="cssscc"
       inkscape:connector-curvature="0"
       id="path4530"
       d="m 30.953488,87.563353 c -6.32846,4.240162 -16.67917,3.736132 -20.82437,-2.574196 -4.1452087,-6.31029 -3.7704289,-15.685065 2.558041,-19.92523 3.164233,-2.120089 7.564449,-3.747715 10.882136,-3.080277 3.485547,0.701178 5.311961,1.559983 7.384559,4.715156 -0.02927,7.532496 -0.118349,13.535845 -3.66e-4,20.864547 z"
       style="opacity:1;fill:#93a7ac;stroke:none;stroke-width:0.925585;stroke-linejoin:round;stroke-miterlimit:4;stroke-dasharray:none;stroke-opacity:1" />
    <path
       sodipodi:nodetypes="cssscc"
       inkscape:connector-curvature="0"
       id="path4530-3"
       d="M 30.913772,77.370742 C 23.932089,81.611785 12.51298,81.107649 7.9399106,74.796001 3.3668346,68.484364 3.7802974,59.107626 10.761994,54.866565 c 3.490845,-2.120527 8.345251,-3.748496 12.005389,-3.080927 3.845325,0.701332 5.860259,1.560312 8.146792,4.716155 -0.03229,7.534085 -0.130577,13.538692 -4.03e-4,20.868949 z"
       style="opacity:1;fill:#b7c4c8;stroke:none;stroke-width:0.972287;stroke-linejoin:round;stroke-miterlimit:4;stroke-dasharray:none;stroke-opacity:1" />
    <path
       sodipodi:nodetypes="cssscc"
       inkscape:connector-curvature="0"
       id="path4530-7"
       d="m 89.849745,87.791478 c 6.328457,4.240162 16.679165,3.736124 20.824375,-2.574196 4.1452,-6.310298 3.77042,-15.685064 -2.55805,-19.925236 -3.16423,-2.120082 -7.56445,-3.747708 -10.882134,-3.080277 -3.485548,0.701185 -5.311959,1.559983 -7.384556,4.715163 0.02924,7.532489 0.118346,13.535837 3.65e-4,20.864546 z"
       style="opacity:1;fill:#b7c4c8;fill-opacity:1;stroke:none;stroke-width:0.925585;stroke-linejoin:round;stroke-miterlimit:4;stroke-dasharray:none;stroke-opacity:1" />
    <path
       sodipodi:nodetypes="cssscc"
       inkscape:connector-curvature="0"
       id="path4530-3-5"
       d="m 89.889452,77.598859 c 6.981692,4.241043 18.400798,3.736907 22.973868,-2.574733 4.57308,-6.311635 4.15961,-15.688381 -2.82208,-19.929443 -3.49084,-2.120527 -8.34525,-3.748495 -12.005389,-3.080926 -3.845333,0.701331 -5.86026,1.560318 -8.146794,4.716155 0.03228,7.534085 0.130574,13.538698 3.95e-4,20.868947 z"
       style="opacity:1;fill:#dbe2e3;fill-opacity:1;stroke:none;stroke-width:0.972287;stroke-linejoin:round;stroke-miterlimit:4;stroke-dasharray:none;stroke-opacity:1" />
    <path
       style="fill:none;stroke:#50535c;stroke-width:0.878481;stroke-linecap:butt;stroke-linejoin:miter;stroke-miterlimit:4;stroke-dasharray:none;stroke-opacity:1"
       d="m 58.193233,124.37272 c 0.852779,0.87639 1.581456,1.80241 1.660216,2.98839 l -0.332048,20.08865 4.814644,-20.75274 c 0.387385,-1.2204 0.774763,-1.70464 1.162148,-2.15828"
       id="path4575"
       inkscape:connector-curvature="0"
       sodipodi:nodetypes="ccccc" />
    <path
       style="fill:#50535c;fill-opacity:1;stroke:#50535c;stroke-width:0.463524px;stroke-linecap:butt;stroke-linejoin:miter;stroke-opacity:1"
       d="m 31.26839,34.726443 h 41.885935 c 6.34291,-0.569022 11.630254,0.339534 11.423448,8.938716 l -0.827799,54.294413 c 0.09353,10.684328 -2.43033,18.893998 -7.634432,24.722938"
       id="path4579"
       inkscape:connector-curvature="0"
       sodipodi:nodetypes="ccccc" />
    <path
       style="fill:#50535c;fill-opacity:1;stroke:#53535b;stroke-width:0.221849;stroke-linejoin:round;stroke-miterlimit:4;stroke-dasharray:none;stroke-opacity:1"
       d="m 68.669215,125.02366 c -0.03114,-0.0311 -6.369842,-0.14242 -13.984551,-0.14584 -8.018734,-0.004 -14.36548,-1.38326 -15.196143,-1.4505 -4.804134,-1.6273 -6.902183,-3.36115 -8.083958,-6.97631 -0.631993,-1.93334 -0.599816,0.18104 -0.595088,-39.105354 0.0027,-23.491782 0.04661,-36.901528 0.123792,-37.915717 0.06567,-0.863033 0.198302,-1.913857 0.294723,-2.335161 0.22727,-0.993054 0.519835,-1.881387 0.619423,-1.880805 0.06531,3.81e-4 44.585474,42.615577 44.616944,74.198567 l 0.01315,13.19657 -2.456587,2.0423 c -1.395399,1.16007 -5.320572,0.40339 -5.351704,0.37225 z"
       id="path4581"
       inkscape:connector-curvature="0"
       sodipodi:nodetypes="scccccccscss" />
    <path
       style="fill:#5a5c63;fill-opacity:1;stroke:#5a5c63;stroke-width:0.221849;stroke-linejoin:round;stroke-miterlimit:4;stroke-dasharray:none;stroke-opacity:1"
       d="m 76.477506,122.60911 c 0,0 0.273824,-0.39169 0.608508,-0.79242 1.571407,-1.88146 3.51488,-5.33561 4.493722,-7.98675 1.218329,-3.29973 1.945752,-6.8137 2.288615,-11.05548 0.153458,-1.89858 0.980847,-55.744302 0.910957,-59.284584 -0.05727,-2.902385 -0.206107,-3.719263 -0.943897,-5.181313 -0.964624,-1.911555 -2.4934,-2.99174 -4.962147,-3.506108 -0.845085,-0.176081 -2.983941,-0.192207 -23.855215,-0.179884 l -22.92691,0.01353 0.199389,-0.386318 c 0.109665,-0.212479 0.548824,-0.736025 0.975911,-1.163446 0.880499,-0.881187 3.006598,-2.21459 4.45109,-2.635434 7.456552,-3.017447 15.587002,-2.789154 21.962389,-3.124313 22.569777,0.710605 23.214733,3.512831 25.339409,4.240608 2.917796,0.999447 4.564052,3.072356 4.993582,6.287719 0.108541,0.812508 0.127354,9.977923 0.08147,39.679585 l -0.0597,38.623028 -0.263852,0.93916 c -0.410513,1.46123 -0.687481,2.65939 -1.55918,3.53171 -1.234126,1.235 -2.438054,2.22244 -5.336126,2.98393 -0.726178,0.42383 -9.179083,1.30192 -9.179083,1.30192 z"
       id="path4583"
       inkscape:connector-curvature="0"
       sodipodi:nodetypes="sccssscscscccccscccccs" />
    <path
       style="fill:none;stroke:none;stroke-width:0.878481;stroke-linecap:butt;stroke-linejoin:miter;stroke-miterlimit:4;stroke-dasharray:none;stroke-opacity:1"
       d="m 39.831642,29.684957 c -8.562415,2.099183 -9.59914,5.545708 -9.46325,12.202612 l -0.08302,68.733071 c -0.433519,8.47413 3.242535,12.41031 12.368638,13.53079 12.242932,1.14157 24.506187,1.82914 37.188902,0.33205 10.025057,-1.4818 11.137587,-7.09527 10.708413,-13.69679 l 0.08301,-68.733082 C 91.140872,35.014394 87.514147,31.279452 78.099694,29.269924 65.700525,26.559134 51.598729,26.446 39.831642,29.684957 Z"
       id="path4528"
       inkscape:connector-curvature="0"
       sodipodi:nodetypes="ccccccccc" />
    <path
       sodipodi:nodetypes="cccccccccc"
       inkscape:connector-curvature="0"
       id="path4585"
       d="m 61.308926,54.94767 c -1.745365,2.213222 -3.995146,4.196576 -8.818881,3.639255 -9.849983,-1.750578 -8.462125,-10.73662 -8.569853,-12.913472 -0.03843,-3.686305 1.431514,-9.230836 10.227624,-9.743815 5.979237,0.148814 7.471899,3.288565 7.865474,7.161108 1.406701,-2.545601 2.923302,-4.981305 7.395903,-4.461018 2.280503,0.334859 3.753471,1.074801 5.634969,4.343636 2.015778,4.016524 -0.08716,9.674432 -1.056562,10.917763 -2.001173,2.715359 -4.802841,4.048725 -7.982871,3.991419 -1.912166,0.06239 -3.408124,-1.123821 -4.695803,-2.934876 z"
       style="fill:#d4f5ff;fill-opacity:0.40000001;stroke:none;stroke-width:0.464861px;stroke-linecap:butt;stroke-linejoin:miter;stroke-opacity:1" />
    <ellipse
       ry="4.0004606"
       rx="3.1703508"
       cy="47.709621"
       cx="58.218876"
       id="path4587"
       style="fill:#000000;fill-opacity:1;stroke:#000000;stroke-width:1.17865;stroke-linejoin:round;stroke-miterlimit:4;stroke-dasharray:none;stroke-opacity:1" />
    <ellipse
       ry="3.1349037"
       rx="2.6783435"
       cy="50.303703"
       cx="63.967388"
       id="path4587-3"
       style="fill:#000000;fill-opacity:1;stroke:#000000;stroke-width:0.959011;stroke-linejoin:round;stroke-miterlimit:4;stroke-dasharray:none;stroke-opacity:1" />
    <path
       style="fill:none;stroke:#72757d;stroke-width:1.87116;stroke-linecap:round;stroke-linejoin:round;stroke-miterlimit:4;stroke-dasharray:none;stroke-opacity:1"
       d="M 38.249655,6.5640735 45.293368,4.2161722 60.437349,26.403865 65.367945,8.0902107 68.068037,13.607788"
       id="path4611"
       inkscape:connector-curvature="0" />
    <path
       style="fill:none;stroke:#000000;stroke-width:2.04686;stroke-linecap:round;stroke-linejoin:round;stroke-miterlimit:4;stroke-dasharray:none;stroke-opacity:1"
       d="m 77.039874,74.083087 -6.808912,-8.217654 -3.874043,4.813194 -8.452457,-7.161103 -2.113109,2.58269 -1.878323,-1.878311 -9.391622,12.326493"
       id="path4613"
       inkscape:connector-curvature="0" />
    <rect
       style="opacity:0.5;fill:#72757d;fill-opacity:1;stroke:#72757d;stroke-width:1.75477;stroke-linecap:round;stroke-linejoin:miter;stroke-miterlimit:4;stroke-dasharray:none;stroke-opacity:1"
       id="rect4615-5"
       width="57.539974"
       height="4.1193047"
       x="31.717123"
       y="91.29261" />
    <rect
       style="opacity:0.5;fill:#72757d;fill-opacity:1;stroke:#72757d;stroke-width:1.75787;stroke-linecap:round;stroke-linejoin:miter;stroke-miterlimit:4;stroke-dasharray:none;stroke-opacity:1"
       id="rect4615-5-6"
       width="57.785919"
       height="4.1162176"
       x="31.600113"
       y="81.567368" />
    <rect
       style="opacity:0.5;fill:#72757d;fill-opacity:1;stroke:#72757d;stroke-width:1.75477;stroke-linecap:round;stroke-linejoin:miter;stroke-miterlimit:4;stroke-dasharray:none;stroke-opacity:1"
       id="rect4615-5-2"
       width="57.539974"
       height="4.1193047"
       x="31.648376"
       y="101.007" />
    <rect
       style="opacity:0.5;fill:#72757d;fill-opacity:1;stroke:#72757d;stroke-width:1.75225;stroke-linecap:round;stroke-linejoin:miter;stroke-miterlimit:4;stroke-dasharray:none;stroke-opacity:1"
       id="rect4615-5-2-9"
       width="57.494865"
       height="4.1107278"
       x="31.720947"
       y="110.64051" />
    <path
       style="opacity:0.5;fill:#72757d;fill-opacity:1;stroke:#72757d;stroke-width:0.400976;stroke-linecap:round;stroke-linejoin:miter;stroke-miterlimit:4;stroke-dasharray:none;stroke-opacity:1"
       d="m 66.168387,125.20318 c -8.035117,-0.21935 -20.33413,-1.03991 -23.699897,-1.58117 -3.355893,-0.53969 -6.286894,-1.55729 -8.122354,-2.81992 l -0.681751,-0.46899 h 27.159741 27.284272 c -2.053738,2.49345 -4.784126,3.46287 -6.827299,3.9519 -3.613335,0.22234 -10.981661,1.03094 -15.112712,0.91818 z"
       id="path4694"
       inkscape:connector-curvature="0"
       sodipodi:nodetypes="ccsccccc" />
    <path
       style="fill:#50535c;fill-opacity:1;stroke:#50535c;stroke-width:0.73102;stroke-linecap:round;stroke-linejoin:round;stroke-miterlimit:4;stroke-dasharray:none;stroke-opacity:1"
       d="m 60.288858,134.4181 c 0.07989,-6.65284 0.05924,-7.6467 -0.170668,-8.19685 -0.143873,-0.34434 -0.261581,-0.65429 -0.261581,-0.68879 0,-0.0345 0.979221,-0.0627 2.176048,-0.0627 2.006095,0 2.16695,0.0226 2.059625,0.29053 -0.06403,0.1598 -0.736203,2.94275 -1.49371,6.18432 -0.757507,3.24158 -1.607537,6.82765 -1.888956,7.96906 l -0.511678,2.07528 z"
       id="path4708"
       inkscape:connector-curvature="0" />
    <rect
       style="opacity:1;fill:#50535c;fill-opacity:1;stroke:none;stroke-width:1.56694;stroke-linecap:round;stroke-linejoin:miter;stroke-miterlimit:4;stroke-dasharray:none;stroke-dashoffset:0;stroke-opacity:1"
       id="rect1987"
       width="45.633129"
       height="52.990871"
       x="59.094284"
       y="102.2855" />
    <rect
       style="opacity:1;fill:#72757d;fill-opacity:1;stroke:none;stroke-width:1.5452;stroke-linecap:round;stroke-linejoin:miter;stroke-miterlimit:4;stroke-dasharray:none;stroke-dashoffset:0;stroke-opacity:1"
       id="rect1989"
       width="44.061699"
       height="53.36763"
       x="15.003073"
       y="102.2855" />
    <path
       d="m 77.768998,134.81637 c -2.872856,0 -5.575735,-1.52994 -7.03766,-3.97781 L 60.3976,109.24758 48.887374,130.83856 c -1.47893,2.46488 -4.181801,3.9948 -7.054665,3.9948 -0.764965,0 -1.529931,-0.10199 -2.260901,-0.32298 L 16.282925,127.8467 v 30.25856 c 0,2.49888 1.699917,4.67478 4.1138,5.26974 l 36.75225,9.19657 c 1.733919,0.42498 3.552841,0.42498 5.269754,0 L 99.204964,163.375 c 2.413896,-0.61196 4.113806,-2.78786 4.113806,-5.26974 V 127.8467 l -23.288887,6.64668 c -0.730962,0.22099 -1.495927,0.32299 -2.260885,0.32299 z m 36.140272,-19.0731 -8.75458,-17.475172 c -0.52698,-1.053934 -1.66592,-1.665912 -2.83886,-1.512925 l -42.514977,5.422747 15.58826,25.85577 c 0.645967,1.07094 1.937907,1.58093 3.14485,1.24094 l 33.641387,-9.60455 c 1.68292,-0.49298 2.49889,-2.36288 1.73392,-3.92681 z M 14.447012,98.268098 5.6924237,115.74327 c -0.7819608,1.56393 0.051016,3.43383 1.7169237,3.90982 l 33.6413986,9.60454 c 1.206944,0.33999 2.498876,-0.16999 3.14485,-1.24094 L 59.800853,102.17792 17.268875,96.755173 c -1.17294,-0.13599 -2.294887,0.458991 -2.821863,1.512925 z"
       id="path1795"
       style="fill:#50535c;fill-opacity:1;stroke:#50535c;stroke-width:2.60054;stroke-miterlimit:4;stroke-dasharray:none;stroke-opacity:1"
       sodipodi:nodetypes="scccsccsccccsccscccccccccccccccc" />
    <path
       d="m 78.170897,135.21827 c -2.872848,0 -5.575727,-1.52993 -7.037659,-3.9778 L 60.20276,113.11933 c -0.800396,34.16498 -2.383309,34.25844 -2.308362,59.77685 1.733926,0.42498 3.209325,0.50228 4.926245,0.0773 l 36.786228,-9.19657 c 2.413899,-0.61196 4.113809,-2.78786 4.113809,-5.26975 V 128.2486 l -23.28889,6.64669 c -0.73097,0.22099 -1.495927,0.32298 -2.260893,0.32298 z m 36.140273,-19.07309 -8.75458,-17.475175 c -0.52697,-1.053934 -1.66592,-1.665912 -2.83886,-1.512925 l -42.51497,5.42275 15.588253,25.85576 c 0.645966,1.07095 1.937906,1.58094 3.14485,1.24095 l 33.641397,-9.60455 c 1.68292,-0.49298 2.49889,-2.36289 1.73391,-3.92681 z"
       id="path1894"
       style="fill:#72757d;fill-opacity:1;stroke:#72757d;stroke-width:2.06889;stroke-miterlimit:4;stroke-dasharray:none;stroke-opacity:1"
       sodipodi:nodetypes="scccccsccscccccccc" />
  </g>
</svg>
