<?xml version="1.0" encoding="UTF-8" standalone="no"?>
<svg
   xmlns:dc="http://purl.org/dc/elements/1.1/"
   xmlns:cc="http://creativecommons.org/ns#"
   xmlns:rdf="http://www.w3.org/1999/02/22-rdf-syntax-ns#"
   xmlns:svg="http://www.w3.org/2000/svg"
   xmlns="http://www.w3.org/2000/svg"
   xmlns:sodipodi="http://sodipodi.sourceforge.net/DTD/sodipodi-0.dtd"
   xmlns:inkscape="http://www.inkscape.org/namespaces/inkscape"
   viewBox="0 0 576 512"
   id="svg3006"
   version="1.1"
   inkscape:version="0.48.2 r9819"
   width="100%"
   height="100%"
   sodipodi:docname="mail-bulk.svg">
  <metadata
     id="metadata3014">
    <rdf:RDF>
      <cc:Work
         rdf:about="">
        <dc:format>image/svg+xml</dc:format>
        <dc:type
           rdf:resource="http://purl.org/dc/dcmitype/StillImage" />
      </cc:Work>
    </rdf:RDF>
  </metadata>
  <defs
     id="defs3012" />
  <sodipodi:namedview
     pagecolor="#ffffff"
     bordercolor="#666666"
     borderopacity="1"
     objecttolerance="10"
     gridtolerance="10"
     guidetolerance="10"
     inkscape:pageopacity="0"
     inkscape:pageshadow="2"
     inkscape:window-width="1366"
     inkscape:window-height="706"
     id="namedview3010"
     showgrid="false"
     inkscape:zoom="0.94528198"
     inkscape:cx="288"
     inkscape:cy="256"
     inkscape:window-x="-8"
     inkscape:window-y="-8"
     inkscape:window-maximized="1"
     inkscape:current-layer="svg3006" />
  <path
     d="m 291.17779,328.45895 c -25.6,0 -51.2,-22.4 -64,-32 -64,-44.8 -83.2,-60.8 -96,-70.4 l 0,134.4 c 0,17.67 14.33,32 32,32 l 256,0 c 17.67,0 32,-14.33 32,-32 l 0,-134.4 c -12.8,9.6 -32,25.6 -96,70.4 -12.8,9.6 -38.4,32 -64,32 z m 128,-192 -256,0 c -17.67,0 -32,14.33 -32,32 l 0,16 c 25.6,19.2 22.4,19.2 115.2,86.4 9.6,6.4 28.8,25.6 44.8,25.6 16,0 35.2,-19.2 44.8,-22.4 92.8,-67.2 89.6,-67.2 115.2,-86.4 l 0,-19.2 c 0,-17.67 -14.33,-32 -32,-32 z m 63.71,25.82 c -234.47333,153.45333 -117.23667,76.72667 0,0 z"
     id="path3008"
     inkscape:connector-curvature="0"
     sodipodi:nodetypes="sccssssccssssccsccsscc" />
</svg>
