<?xml version="1.0" encoding="UTF-8" standalone="no"?>
<!-- Created with Inkscape (http://www.inkscape.org/) -->

<svg
   xmlns:dc="http://purl.org/dc/elements/1.1/"
   xmlns:cc="http://creativecommons.org/ns#"
   xmlns:rdf="http://www.w3.org/1999/02/22-rdf-syntax-ns#"
   xmlns:svg="http://www.w3.org/2000/svg"
   xmlns="http://www.w3.org/2000/svg"
   version="1.1"
   width="500"
   height="500"
   id="svg2">
  <defs
     id="defs4" />
  <metadata
     id="metadata7">
    <rdf:RDF>
      <cc:Work
         rdf:about="">
        <dc:format>image/svg+xml</dc:format>
        <dc:type
           rdf:resource="http://purl.org/dc/dcmitype/StillImage" />
        <dc:title></dc:title>
      </cc:Work>
    </rdf:RDF>
  </metadata>
  <g
     transform="translate(0,-552.36218)"
     id="layer1">
    <path
       d="m 438.29787,187.23404 a 75.531914,75.531914 0 1 1 -151.06382,0 75.531914,75.531914 0 1 1 151.06382,0 z"
       transform="matrix(1.1430348,0,0,1.1430348,-22.632848,447.3897)"
       id="path2985"
       style="fill:none;stroke:#e0ffff;stroke-width:20;stroke-linecap:butt;stroke-linejoin:round;stroke-miterlimit:4;stroke-opacity:1;stroke-dasharray:none;stroke-dashoffset:0" />
    <path
       d="m 438.29787,187.23404 a 75.531914,75.531914 0 1 1 -151.06382,0 75.531914,75.531914 0 1 1 151.06382,0 z"
       transform="matrix(0.7761194,0,0,0.7761194,-197.50714,628.32281)"
       id="path2985-1"
       style="fill:none;stroke:#e0ffff;stroke-width:25.7692318;stroke-linecap:butt;stroke-linejoin:round;stroke-miterlimit:4;stroke-opacity:1;stroke-dasharray:none;stroke-dashoffset:0" />
    <path
       d="m 438.29787,187.23404 a 75.531914,75.531914 0 1 1 -151.06382,0 75.531914,75.531914 0 1 1 151.06382,0 z"
       transform="translate(-38.297876,732.14942)"
       id="path2985-1-7"
       style="fill:none;stroke:#e0ffff;stroke-width:20;stroke-linecap:butt;stroke-linejoin:round;stroke-miterlimit:4;stroke-opacity:1;stroke-dasharray:none;stroke-dashoffset:0" />
    <path
       d="m 136.17021,808.74516 119.14894,78.7234"
       id="path3791"
       style="fill:none;stroke:#e0ffff;stroke-width:20;stroke-linecap:butt;stroke-linejoin:miter;stroke-miterlimit:4;stroke-opacity:1;stroke-dasharray:none" />
    <path
       d="M 142.55319,749.1707 306.38298,681.08557"
       id="path3791-4"
       style="fill:none;stroke:#e0ffff;stroke-width:20;stroke-linecap:butt;stroke-linejoin:miter;stroke-miterlimit:4;stroke-opacity:1;stroke-dasharray:none" />
  </g>
</svg>
