<?xml version="1.0" encoding="UTF-8" standalone="no"?>
<svg
   xmlns:dc="http://purl.org/dc/elements/1.1/"
   xmlns:cc="http://creativecommons.org/ns#"
   xmlns:rdf="http://www.w3.org/1999/02/22-rdf-syntax-ns#"
   xmlns:svg="http://www.w3.org/2000/svg"
   xmlns="http://www.w3.org/2000/svg"
   xmlns:sodipodi="http://sodipodi.sourceforge.net/DTD/sodipodi-0.dtd"
   xmlns:inkscape="http://www.inkscape.org/namespaces/inkscape"
   viewBox="0 0 640 660"
   id="svg3805"
   version="1.1"
   inkscape:version="0.48.2 r9819"
   width="100%"
   height="100%"
   sodipodi:docname="users-lists.svg">
  <metadata
     id="metadata3813">
    <rdf:RDF>
      <cc:Work
         rdf:about="">
        <dc:format>image/svg+xml</dc:format>
        <dc:type
           rdf:resource="http://purl.org/dc/dcmitype/StillImage" />
        <dc:title />
      </cc:Work>
    </rdf:RDF>
  </metadata>
  <defs
     id="defs3811" />
  <sodipodi:namedview
     pagecolor="#ffffff"
     bordercolor="#666666"
     borderopacity="1"
     objecttolerance="10"
     gridtolerance="10"
     guidetolerance="10"
     inkscape:pageopacity="0"
     inkscape:pageshadow="2"
     inkscape:window-width="1366"
     inkscape:window-height="705"
     id="namedview3809"
     showgrid="false"
     inkscape:zoom="0.94348145"
     inkscape:cx="280.07078"
     inkscape:cy="395.22355"
     inkscape:window-x="-8"
     inkscape:window-y="-8"
     inkscape:window-maximized="1"
     inkscape:current-layer="svg3805" />
  <path
     d="m 96,372 c 35.3,0 64,-28.7 64,-64 0,-35.3 -28.7,-64 -64,-64 -35.3,0 -64,28.7 -64,64 0,35.3 28.7,64 64,64 z m 448,0 c 35.3,0 64,-28.7 64,-64 0,-35.3 -28.7,-64 -64,-64 -35.3,0 -64,28.7 -64,64 0,35.3 28.7,64 64,64 z m 32,32 h -64 c -17.6,0 -33.5,7.1 -45.1,18.6 40.3,22.1 68.9,62 75.1,109.4 h 66 c 17.7,0 32,-14.3 32,-32 v -32 c 0,-35.3 -28.7,-64 -64,-64 z m -256,0 c 61.9,0 112,-50.1 112,-112 0,-61.9 -50.1,-112 -112,-112 -61.9,0 -112,50.1 -112,112 0,61.9 50.1,112 112,112 z m 76.8,32 h -8.3 c -20.8,10 -43.9,16 -68.5,16 -24.6,0 -47.6,-6 -68.5,-16 h -8.3 C 179.6,436 128,487.6 128,551.2 V 580 c 0,26.5 21.5,48 48,48 h 288 c 26.5,0 48,-21.5 48,-48 V 551.2 C 512,487.6 460.4,436 396.8,436 z M 173.1,422.6 C 161.5,411.1 145.6,404 128,404 H 64 C 28.7,404 0,432.7 0,468 v 32 c 0,17.7 14.3,32 32,32 h 65.9 c 6.3,-47.4 34.9,-87.3 75.2,-109.4 z"
     id="path3807"
     style="fill:#e0ffff;fill-opacity:1"
     inkscape:connector-curvature="0" />
  <g
     id="g3772"
     transform="translate(15.898564,-15.225257)"
     style="fill:#e0ffff;fill-opacity:1;stroke:#e0ffff;stroke-opacity:1">
    <path
       inkscape:connector-curvature="0"
       id="path3752"
       d="M 453.63902,24.444042 452.57912,263.9824"
       style="fill:#e0ffff;fill-opacity:1;stroke:#e0ffff;stroke-width:50;stroke-linecap:butt;stroke-linejoin:round;stroke-miterlimit:4;stroke-opacity:1;stroke-dasharray:none" />
    <path
       inkscape:connector-curvature="0"
       id="path3752-1"
       d="M 571.28883,139.33313 331.74959,138.49427"
       style="fill:#e0ffff;fill-opacity:1;stroke:#e0ffff;stroke-width:50;stroke-linecap:butt;stroke-linejoin:round;stroke-miterlimit:4;stroke-opacity:1;stroke-dasharray:none" />
  </g>
</svg>
